<?xml version="1.0" standalone="no"?>
<!DOCTYPE svg PUBLIC "-//W3C//DTD SVG 20010904//EN"
 "http://www.w3.org/TR/2001/REC-SVG-20010904/DTD/svg10.dtd">
<svg version="1.0" xmlns="http://www.w3.org/2000/svg"
 width="64.000000pt" height="64.000000pt" viewBox="0 0 64.000000 64.000000"
 preserveAspectRatio="xMidYMid meet">

<g transform="translate(0.000000,64.000000) scale(0.100000,-0.100000)"
fill="#000000" stroke="none">
<path d="M120 600 c-17 -17 -20 -33 -20 -100 l0 -80 -28 0 c-15 0 -33 -5 -40
-12 -17 -17 -17 -359 0 -376 8 -8 53 -12 138 -12 130 0 150 6 150 42 0 24 32
23 55 -2 26 -29 87 -43 132 -31 109 30 145 168 63 246 -30 29 -30 29 -30 145
l0 116 -43 42 -43 42 -157 0 c-144 0 -159 -2 -177 -20z m322 -37 c3 -36 5 -38
41 -41 l37 -3 0 -106 0 -105 -25 6 c-61 16 -145 -36 -165 -100 -6 -21 -9 0 -9
77 -1 67 -5 109 -13 117 -8 8 -45 12 -100 12 l-88 0 0 83 c0 46 3 87 7 90 3 4
75 7 159 7 l153 0 3 -37z m43 -3 c18 -19 17 -20 -3 -20 -15 0 -22 6 -22 20 0
11 2 20 3 20 2 0 12 -9 22 -20z m-185 -340 l0 -180 -130 0 -130 0 0 180 0 180
130 0 130 0 0 -180z m160 71 c0 -15 -19 -23 -38 -16 -14 5 -14 7 -2 15 19 12
40 13 40 1z m59 0 c9 -6 10 -10 2 -16 -15 -8 -41 1 -41 15 0 12 20 13 39 1z
m-125 -42 c-9 -10 -21 -16 -26 -13 -5 3 -2 14 8 25 9 10 21 16 26 13 5 -3 2
-14 -8 -25z m180 -11 c-3 -5 -14 -2 -25 8 -10 9 -16 21 -13 26 3 5 14 2 25 -8
10 -9 16 -21 13 -26z m-40 -4 c19 -19 26 -37 26 -64 0 -81 -96 -121 -154 -64
-57 58 -17 154 64 154 27 0 45 -7 64 -26z m-164 -29 c0 -15 -18 -30 -27 -22
-2 3 -2 15 2 26 7 23 25 19 25 -4z m226 -22 c-12 -12 -29 15 -21 34 7 17 8 16
18 -5 5 -12 7 -25 3 -29z m-230 -38 c8 -21 -6 -41 -17 -24 -12 19 -11 39 1 39
6 0 13 -7 16 -15z m234 3 c0 -7 -4 -19 -9 -27 -11 -17 -25 3 -17 24 7 18 26
20 26 3z m-268 -23 c3 -14 1 -25 -3 -25 -5 0 -9 11 -9 25 0 14 2 25 4 25 2 0
6 -11 8 -25z m72 -57 c-3 -5 -14 -2 -25 8 -10 9 -16 21 -13 26 3 5 14 2 25 -8
10 -9 16 -21 13 -26z m160 11 c-9 -10 -21 -16 -26 -13 -5 3 -2 14 8 25 9 10
21 16 26 13 5 -3 2 -14 -8 -25z m-109 -20 c10 -15 -1 -22 -24 -14 -12 3 -19
11 -16 16 8 12 32 11 40 -2z m70 2 c3 -5 -4 -13 -16 -16 -23 -8 -34 -1 -24 14
8 13 32 14 40 2z"/>
<path d="M152 568 c-16 -16 -16 -100 0 -116 16 -16 180 -16 196 0 16 16 16
100 0 116 -7 7 -44 12 -98 12 -54 0 -91 -5 -98 -12z m188 -58 l0 -50 -90 0
-90 0 0 50 0 50 90 0 90 0 0 -50z"/>
<path d="M392 488 c-7 -7 -12 -33 -12 -58 0 -55 13 -70 60 -70 47 0 60 15 60
70 0 55 -13 70 -60 70 -20 0 -41 -5 -48 -12z m88 -58 l0 -50 -40 0 -40 0 0 50
0 50 40 0 40 0 0 -50z"/>
<path d="M80 360 c-26 -26 -26 -74 0 -100 16 -16 33 -20 90 -20 81 0 110 19
110 70 0 51 -29 70 -110 70 -57 0 -74 -4 -90 -20z m175 -50 l0 -45 -85 0 -85
0 -3 33 c-6 60 -1 63 90 60 l83 -3 0 -45z"/>
<path d="M184 336 c-3 -8 -4 -25 -2 -38 2 -17 9 -23 28 -23 22 0 25 4 25 35 0
29 -4 36 -23 38 -13 2 -24 -3 -28 -12z m36 -26 c0 -11 -4 -20 -10 -20 -5 0
-10 9 -10 20 0 11 5 20 10 20 6 0 10 -9 10 -20z"/>
<path d="M70 206 c-27 -33 18 -72 48 -42 13 13 14 20 6 34 -15 23 -38 26 -54
8z m40 -21 c0 -8 -7 -15 -15 -15 -8 0 -15 7 -15 15 0 8 7 15 15 15 8 0 15 -7
15 -15z"/>
<path d="M150 206 c-27 -33 18 -72 48 -42 13 13 14 20 6 34 -15 23 -38 26 -54
8z m40 -21 c0 -8 -7 -15 -15 -15 -8 0 -15 7 -15 15 0 8 7 15 15 15 8 0 15 -7
15 -15z"/>
<path d="M224 205 c-4 -9 -2 -21 4 -27 16 -16 47 -5 47 17 0 26 -42 34 -51 10z"/>
<path d="M224 137 c-3 -9 -4 -28 -2 -44 2 -22 8 -28 28 -28 23 0 25 4 25 40 0
34 -3 40 -23 43 -13 2 -24 -3 -28 -11z m36 -32 c0 -14 -4 -25 -10 -25 -5 0
-10 11 -10 25 0 14 5 25 10 25 6 0 10 -11 10 -25z"/>
<path d="M70 116 c-27 -33 18 -72 48 -42 13 13 14 20 6 34 -15 23 -38 26 -54
8z m40 -21 c0 -8 -7 -15 -15 -15 -8 0 -15 7 -15 15 0 8 7 15 15 15 8 0 15 -7
15 -15z"/>
<path d="M150 116 c-27 -33 18 -72 48 -42 13 13 14 20 6 34 -15 23 -38 26 -54
8z m40 -21 c0 -8 -7 -15 -15 -15 -8 0 -15 7 -15 15 0 8 7 15 15 15 8 0 15 -7
15 -15z"/>
<path d="M450 216 c-15 -28 -8 -56 15 -56 8 0 15 -4 15 -10 0 -5 -9 -10 -20
-10 -24 0 -25 -6 -4 -27 14 -14 16 -14 29 3 21 27 18 55 -5 61 -11 3 -20 9
-20 14 0 5 9 9 20 9 24 0 25 6 6 26 -19 19 -20 18 -36 -10z"/>
</g>
</svg>
