<?xml version="1.0" standalone="no"?>
<!DOCTYPE svg PUBLIC "-//W3C//DTD SVG 20010904//EN"
 "http://www.w3.org/TR/2001/REC-SVG-20010904/DTD/svg10.dtd">
<svg version="1.0" xmlns="http://www.w3.org/2000/svg"
 width="64.000000pt" height="64.000000pt" viewBox="0 0 64.000000 64.000000"
 preserveAspectRatio="xMidYMid meet">

<g transform="translate(0.000000,64.000000) scale(0.100000,-0.100000)"
fill="#000000" stroke="none">
<path d="M140 577 c-108 -40 -115 -44 -118 -72 -2 -16 2 -34 10 -40 7 -6 19
-20 26 -33 14 -26 16 -168 2 -177 -6 -3 -10 -13 -10 -22 0 -8 -7 -30 -16 -48
-8 -19 -14 -44 -12 -57 3 -23 4 -23 161 -26 l157 -3 0 -27 c0 -16 5 -33 12
-40 17 -17 239 -17 256 0 17 17 17 359 0 376 -7 7 -40 12 -80 12 -60 0 -67 2
-61 18 4 9 13 22 21 27 8 7 12 23 10 40 -3 28 -10 32 -108 67 -58 21 -112 40
-120 42 -8 3 -67 -14 -130 -37z m233 -14 c94 -33 107 -40 107 -60 l0 -23 -220
0 -220 0 0 23 c0 20 13 27 102 59 57 20 108 37 113 38 6 0 58 -16 118 -37z
m-223 -113 c0 -5 -18 -10 -40 -10 -22 0 -40 5 -40 10 0 6 18 10 40 10 22 0 40
-4 40 -10z m58 -17 c25 -56 9 -213 -23 -213 -19 0 -35 54 -35 120 0 66 16 120
35 120 6 0 16 -12 23 -27z m92 17 c0 -5 -18 -10 -40 -10 -22 0 -40 5 -40 10 0
6 18 10 40 10 22 0 40 -4 40 -10z m54 -12 c3 -13 1 -27 -4 -32 -6 -6 -10 -50
-10 -98 0 -48 -3 -88 -7 -88 -30 0 -45 160 -20 213 15 33 33 35 41 5z m96 12
c0 -5 -18 -10 -40 -10 -22 0 -40 5 -40 10 0 6 18 10 40 10 22 0 40 -4 40 -10z
m-320 -110 c0 -73 -2 -80 -20 -80 -18 0 -20 7 -20 80 0 73 2 80 20 80 18 0 20
-7 20 -80z m150 0 c0 -73 -2 -80 -20 -80 -18 0 -20 7 -20 80 0 73 2 80 20 80
18 0 20 -7 20 -80z m320 -120 l0 -180 -120 0 -120 0 0 180 0 180 120 0 120 0
0 -180z m-450 10 c0 -5 -18 -10 -40 -10 -22 0 -40 5 -40 10 0 6 18 10 40 10
22 0 40 -4 40 -10z m150 0 c0 -5 -18 -10 -40 -10 -22 0 -40 5 -40 10 0 6 18
10 40 10 22 0 40 -4 40 -10z m40 -40 c0 -6 -53 -10 -140 -10 -87 0 -140 4
-140 10 0 6 53 10 140 10 87 0 140 -4 140 -10z m0 -50 c0 -19 -7 -20 -150 -20
-143 0 -150 1 -150 20 0 19 7 20 150 20 143 0 150 -1 150 -20z"/>
<path d="M236 564 c-9 -8 -16 -19 -16 -24 0 -11 29 -40 40 -40 11 0 40 29 40
40 0 11 -29 40 -40 40 -5 0 -16 -7 -24 -16z m44 -24 c0 -13 -7 -20 -20 -20
-13 0 -20 7 -20 20 0 13 7 20 20 20 13 0 20 -7 20 -20z"/>
<path d="M384 366 c-3 -8 -4 -29 -2 -48 l3 -33 95 0 95 0 0 45 0 45 -93 3
c-73 2 -93 0 -98 -12z m176 -36 l0 -30 -80 0 -80 0 0 30 0 30 80 0 80 0 0 -30z"/>
<path d="M430 330 c0 -5 5 -10 10 -10 6 0 10 5 10 10 0 6 -4 10 -10 10 -5 0
-10 -4 -10 -10z"/>
<path d="M470 330 c0 -5 5 -10 10 -10 6 0 10 5 10 10 0 6 -4 10 -10 10 -5 0
-10 -4 -10 -10z"/>
<path d="M510 330 c0 -5 5 -10 10 -10 6 0 10 5 10 10 0 6 -4 10 -10 10 -5 0
-10 -4 -10 -10z"/>
<path d="M384 247 c-2 -8 -4 -52 -2 -98 l3 -84 95 0 95 0 0 95 0 95 -93 3
c-71 2 -94 0 -98 -11z m56 -27 c0 -13 -7 -20 -20 -20 -13 0 -20 7 -20 20 0 13
7 20 20 20 13 0 20 -7 20 -20z m60 0 c0 -13 -7 -20 -20 -20 -13 0 -20 7 -20
20 0 13 7 20 20 20 13 0 20 -7 20 -20z m60 0 c0 -13 -7 -20 -20 -20 -13 0 -20
7 -20 20 0 13 7 20 20 20 13 0 20 -7 20 -20z m-120 -60 c0 -13 -7 -20 -20 -20
-13 0 -20 7 -20 20 0 13 7 20 20 20 13 0 20 -7 20 -20z m60 0 c0 -13 -7 -20
-20 -20 -13 0 -20 7 -20 20 0 13 7 20 20 20 13 0 20 -7 20 -20z m60 0 c0 -13
-7 -20 -20 -20 -13 0 -20 7 -20 20 0 13 7 20 20 20 13 0 20 -7 20 -20z m-120
-60 c0 -13 -7 -20 -20 -20 -13 0 -20 7 -20 20 0 13 7 20 20 20 13 0 20 -7 20
-20z m60 0 c0 -13 -7 -20 -20 -20 -13 0 -20 7 -20 20 0 13 7 20 20 20 13 0 20
-7 20 -20z m60 0 c0 -13 -7 -20 -20 -20 -13 0 -20 7 -20 20 0 13 7 20 20 20
13 0 20 -7 20 -20z"/>
</g>
</svg>
