<?xml version="1.0" standalone="no"?>
<!DOCTYPE svg PUBLIC "-//W3C//DTD SVG 20010904//EN"
 "http://www.w3.org/TR/2001/REC-SVG-20010904/DTD/svg10.dtd">
<svg version="1.0" xmlns="http://www.w3.org/2000/svg"
 width="512.000000pt" height="512.000000pt" viewBox="0 0 512.000000 512.000000"
 preserveAspectRatio="xMidYMid meet">

<g transform="translate(0.000000,512.000000) scale(0.100000,-0.100000)"
fill="#000000" stroke="none">
<path d="M4813 1853 c-10 -4 -13 -148 -13 -676 l0 -672 -24 -51 c-25 -54 -68
-93 -129 -119 -32 -13 -205 -15 -1462 -15 l-1425 0 0 710 0 710 -34 0 c-18 0
-54 -3 -80 -6 l-46 -7 0 -703 0 -704 -307 0 c-303 0 -309 1 -358 24 -101 48
-134 113 -135 267 l0 106 113 6 c147 7 196 25 268 96 66 67 91 130 91 228 -1
121 -72 227 -189 280 -43 20 -76 26 -168 30 l-115 6 0 157 0 157 108 6 c59 4
121 11 137 16 33 11 -334 4 -486 -9 l-84 -7 83 -2 82 -1 0 -159 0 -158 -115
-6 c-92 -4 -125 -10 -168 -30 -117 -53 -188 -159 -189 -280 0 -98 25 -161 91
-228 72 -71 121 -89 269 -96 l112 -6 0 -82 c0 -205 65 -337 205 -420 99 -58
23 -56 1988 -53 1692 3 1805 4 1854 21 105 36 215 145 250 250 16 47 18 117
21 740 l3 687 -68 -1 c-37 0 -74 -3 -80 -6z m-3777 -669 c56 -27 79 -68 79
-144 0 -76 -23 -117 -79 -144 -51 -24 -581 -24 -632 0 -56 27 -79 68 -79 144
0 75 22 116 77 143 49 25 583 25 634 1z"/>
<path d="M3978 1823 l-58 -4 0 -44 c0 -42 -2 -45 -62 -85 -177 -116 -360 -170
-577 -170 -131 0 -198 10 -316 45 -138 42 -325 149 -325 186 0 17 -8 19 -92
18 -51 -1 -106 -4 -122 -8 l-29 -6 74 -70 c217 -206 500 -317 809 -317 246 0
458 64 665 200 71 47 220 183 257 234 l19 28 -93 -2 c-51 -1 -119 -3 -150 -5z"/>
</g>
</svg>
