<?xml version="1.0" standalone="no"?>
<!DOCTYPE svg PUBLIC "-//W3C//DTD SVG 20010904//EN"
 "http://www.w3.org/TR/2001/REC-SVG-20010904/DTD/svg10.dtd">
<svg version="1.0" xmlns="http://www.w3.org/2000/svg"
 width="50.000000pt" height="50.000000pt" viewBox="0 0 50.000000 50.000000"
 preserveAspectRatio="xMidYMid meet">

<g transform="translate(0.000000,50.000000) scale(0.100000,-0.100000)"
fill="#000000" stroke="none">
<path d="M433 463 c-13 -39 -77 -123 -93 -123 -10 0 -34 11 -54 25 l-37 25
-35 -36 c-20 -19 -46 -40 -57 -45 -12 -6 -38 -18 -57 -28 -19 -10 -40 -17 -46
-14 -17 6 -28 -17 -15 -30 7 -7 15 -6 28 5 17 15 56 31 78 33 6 0 28 17 49 38
47 44 70 46 120 12 37 -25 56 -25 56 -2 0 15 64 105 86 121 9 7 14 18 10 24
-10 17 -26 15 -33 -5z"/>
<path d="M410 175 l0 -175 40 0 40 0 0 175 0 175 -40 0 -40 0 0 -175z m60 0
c0 -148 -1 -155 -20 -155 -19 0 -20 7 -20 155 0 148 1 155 20 155 19 0 20 -7
20 -155z"/>
<path d="M210 130 l0 -130 40 0 40 0 0 130 0 130 -40 0 -40 0 0 -130z m60 0
c0 -103 -1 -110 -20 -110 -19 0 -20 7 -20 110 0 103 1 110 20 110 19 0 20 -7
20 -110z"/>
<path d="M310 105 l0 -105 40 0 40 0 0 105 0 105 -40 0 -40 0 0 -105z m60 0
c0 -78 -2 -85 -20 -85 -18 0 -20 7 -20 85 0 78 2 85 20 85 18 0 20 -7 20 -85z"/>
<path d="M110 90 l0 -90 40 0 40 0 0 90 0 90 -40 0 -40 0 0 -90z m60 0 c0 -63
-2 -70 -20 -70 -18 0 -20 7 -20 70 0 63 2 70 20 70 18 0 20 -7 20 -70z"/>
<path d="M10 70 l0 -70 40 0 40 0 0 70 0 70 -40 0 -40 0 0 -70z m60 0 c0 -43
-3 -50 -20 -50 -17 0 -20 7 -20 50 0 43 3 50 20 50 17 0 20 -7 20 -50z"/>
</g>
</svg>
