<?xml version="1.0" standalone="no"?>
<!DOCTYPE svg PUBLIC "-//W3C//DTD SVG 20010904//EN"
 "http://www.w3.org/TR/2001/REC-SVG-20010904/DTD/svg10.dtd">
<svg version="1.0" xmlns="http://www.w3.org/2000/svg"
 width="64.000000pt" height="64.000000pt" viewBox="0 0 64.000000 64.000000"
 preserveAspectRatio="xMidYMid meet">

<g transform="translate(0.000000,64.000000) scale(0.100000,-0.100000)"
fill="#000000" stroke="none">
<path d="M270 602 c-77 -38 -74 -155 6 -188 21 -9 48 -13 64 -9 37 8 77 49 85
85 9 42 -21 99 -61 116 -43 18 -52 18 -94 -4z m114 -28 c36 -37 36 -91 0 -128
-58 -57 -154 -17 -154 64 0 27 7 45 26 64 19 19 37 26 64 26 27 0 45 -7 64
-26z"/>
<path d="M295 550 c-15 -16 -15 -22 -5 -35 7 -8 21 -15 31 -15 11 0 19 -5 19
-11 0 -8 -11 -9 -32 -5 l-33 6 23 -22 22 -22 22 21 c18 18 19 24 8 37 -7 9
-21 16 -31 16 -11 0 -19 5 -19 11 0 8 11 9 32 5 31 -6 31 -6 13 14 -23 25 -27
25 -50 0z"/>
<path d="M310 355 c0 -24 -1 -24 -102 -27 l-103 -3 -3 -37 c-2 -22 1 -38 7
-38 6 0 11 14 11 30 l0 30 95 0 95 0 0 -30 c0 -16 5 -30 10 -30 6 0 10 14 10
30 l0 30 95 0 95 0 0 -30 c0 -16 5 -30 11 -30 6 0 9 16 7 38 l-3 37 -102 3
c-102 3 -103 3 -103 27 0 14 -4 25 -10 25 -5 0 -10 -11 -10 -25z"/>
<path d="M295 194 c-9 -9 -14 -23 -10 -32 3 -8 -2 -23 -10 -32 -11 -12 -15
-32 -13 -61 l3 -44 55 0 55 0 3 44 c2 29 -2 49 -13 61 -8 9 -13 24 -10 32 6
15 -18 48 -35 48 -5 0 -16 -7 -25 -16z m45 -24 c0 -13 -7 -20 -20 -20 -13 0
-20 7 -20 20 0 13 7 20 20 20 13 0 20 -7 20 -20z m20 -90 l0 -40 -40 0 -40 0
0 40 0 40 40 0 40 0 0 -40z"/>
<path d="M84 185 c-4 -8 -14 -15 -25 -15 -24 0 -42 -33 -27 -48 9 -9 9 -15 0
-24 -15 -15 3 -48 27 -48 11 0 21 -7 25 -15 7 -19 45 -19 52 0 4 8 14 15 25
15 24 0 42 33 27 48 -9 9 -9 15 0 24 15 15 -3 48 -27 48 -11 0 -21 7 -25 15
-3 8 -15 15 -26 15 -11 0 -23 -7 -26 -15z m61 -25 c26 -11 30 -18 30 -49 0
-31 -4 -39 -32 -52 -30 -15 -36 -15 -66 0 -29 14 -33 20 -32 55 1 30 5 40 19
42 10 1 23 7 29 13 6 6 14 10 17 8 3 -2 19 -9 35 -17z"/>
<path d="M86 134 c-9 -8 -16 -19 -16 -24 0 -11 29 -40 40 -40 11 0 40 29 40
40 0 11 -29 40 -40 40 -5 0 -16 -7 -24 -16z m40 -15 c10 -17 -13 -36 -27 -22
-12 12 -4 33 11 33 5 0 12 -5 16 -11z"/>
<path d="M457 182 c-40 -44 -5 -108 54 -100 22 4 32 0 36 -11 4 -9 13 -24 21
-34 14 -16 16 -16 34 -1 20 19 10 40 -27 54 -18 7 -21 14 -17 40 8 59 -62 95
-101 52z m71 -8 c12 -8 22 -22 22 -31 0 -21 -29 -53 -47 -53 -15 0 -53 35 -53
50 0 12 37 50 48 50 4 0 18 -7 30 -16z m63 -117 c-1 -12 -15 -9 -19 4 -3 6 1
10 8 8 6 -3 11 -8 11 -12z"/>
</g>
</svg>
