<?xml version="1.0" standalone="no"?>
<!DOCTYPE svg PUBLIC "-//W3C//DTD SVG 20010904//EN"
 "http://www.w3.org/TR/2001/REC-SVG-20010904/DTD/svg10.dtd">
<svg version="1.0" xmlns="http://www.w3.org/2000/svg"
 width="100.000000pt" height="100.000000pt" viewBox="0 0 100.000000 100.000000"
 preserveAspectRatio="xMidYMid meet">

<g transform="translate(0.000000,100.000000) scale(0.100000,-0.100000)"
fill="#000000" stroke="none">
<path d="M140 500 l0 -460 270 0 c259 0 270 1 280 20 11 20 8 20 -250 20
l-260 0 0 420 0 420 200 0 200 0 0 -120 0 -120 120 0 120 0 0 -154 c0 -105 4
-164 13 -185 7 -17 16 -28 20 -24 4 3 7 92 7 197 l0 191 -128 128 -127 127
-233 0 -232 0 0 -460z m570 305 l85 -85 -88 0 -87 0 0 85 c0 47 1 85 3 85 1 0
40 -38 87 -85z"/>
<path d="M265 589 c-16 -25 20 -29 241 -27 196 3 229 5 229 18 0 13 -34 15
-232 18 -161 2 -234 -1 -238 -9z"/>
<path d="M265 469 c-16 -25 20 -29 241 -27 196 3 229 5 229 18 0 13 -34 15
-232 18 -161 2 -234 -1 -238 -9z"/>
<path d="M265 349 c-16 -24 18 -29 181 -27 142 3 169 5 169 18 0 13 -27 15
-172 18 -118 2 -174 -1 -178 -9z"/>
<path d="M713 350 c-14 -6 -24 -21 -28 -43 -9 -48 -4 -67 26 -89 20 -15 30
-17 51 -9 49 18 50 123 1 142 -13 5 -25 9 -26 8 -1 0 -12 -4 -24 -9z m47 -70
c0 -33 -3 -40 -20 -40 -17 0 -20 7 -20 40 0 33 3 40 20 40 17 0 20 -7 20 -40z"/>
<path d="M826 189 c-97 -154 -112 -189 -86 -189 13 0 221 340 215 351 -4 5
-10 9 -14 9 -5 0 -57 -77 -115 -171z"/>
<path d="M265 229 c-16 -24 18 -29 181 -27 142 3 169 5 169 18 0 13 -27 15
-172 18 -118 2 -174 -1 -178 -9z"/>
<path d="M913 150 c-14 -6 -24 -21 -28 -43 -9 -48 -4 -67 26 -89 20 -15 30
-17 51 -9 49 18 50 123 1 142 -13 5 -25 9 -26 8 -1 0 -12 -4 -24 -9z m47 -70
c0 -33 -3 -40 -20 -40 -17 0 -20 7 -20 40 0 33 3 40 20 40 17 0 20 -7 20 -40z"/>
</g>
</svg>
