<?xml version="1.0" standalone="no"?>
<!DOCTYPE svg PUBLIC "-//W3C//DTD SVG 20010904//EN"
 "http://www.w3.org/TR/2001/REC-SVG-20010904/DTD/svg10.dtd">
<svg version="1.0" xmlns="http://www.w3.org/2000/svg"
 width="80.000000pt" height="80.000000pt" viewBox="0 0 80.000000 80.000000"
 preserveAspectRatio="xMidYMid meet">

<g transform="translate(0.000000,80.000000) scale(0.100000,-0.100000)"
fill="#000000" stroke="none">
<path d="M50 422 l0 -249 98 -6 c144 -9 363 -58 509 -114 9 -4 13 8 13 42 0
45 1 47 25 41 25 -6 25 -5 25 54 0 47 3 60 15 60 13 0 15 30 15 210 l0 210
-350 0 -350 0 0 -248z m680 38 l0 -190 -330 0 -330 0 0 190 0 190 330 0 330 0
0 -190z m-30 -261 c0 -41 -3 -50 -15 -45 -62 23 -307 57 -527 72 -49 3 -88 10
-88 15 0 5 132 9 315 9 l315 0 0 -51z m-255 -14 c55 -8 124 -20 153 -26 52
-10 52 -10 52 -49 l0 -39 -71 24 c-103 35 -279 73 -398 85 -57 5 -105 10 -107
10 -2 0 -4 5 -4 12 0 15 234 4 375 -17z"/>
<path d="M350 553 c-25 -13 -39 -29 -49 -59 -13 -37 -12 -44 5 -80 40 -82 156
-80 190 3 40 95 -54 183 -146 136z m114 -29 c36 -37 36 -91 0 -128 -58 -57
-154 -17 -154 64 0 27 7 45 26 64 19 19 37 26 64 26 27 0 45 -7 64 -26z"/>
<path d="M166 484 c-9 -8 -16 -19 -16 -24 0 -11 29 -40 40 -40 11 0 40 29 40
40 0 11 -29 40 -40 40 -5 0 -16 -7 -24 -16z m44 -24 c0 -13 -7 -20 -20 -20
-13 0 -20 7 -20 20 0 13 7 20 20 20 13 0 20 -7 20 -20z"/>
<path d="M576 484 c-9 -8 -16 -19 -16 -24 0 -11 29 -40 40 -40 11 0 40 29 40
40 0 11 -29 40 -40 40 -5 0 -16 -7 -24 -16z m44 -24 c0 -13 -7 -20 -20 -20
-13 0 -20 7 -20 20 0 13 7 20 20 20 13 0 20 -7 20 -20z"/>
</g>
</svg>
