<?xml version="1.0" standalone="no"?>
<!DOCTYPE svg PUBLIC "-//W3C//DTD SVG 20010904//EN"
 "http://www.w3.org/TR/2001/REC-SVG-20010904/DTD/svg10.dtd">
<svg version="1.0" xmlns="http://www.w3.org/2000/svg"
 width="60.000000pt" height="60.000000pt" viewBox="0 0 60.000000 60.000000"
 preserveAspectRatio="xMidYMid meet">

<g transform="translate(0.000000,60.000000) scale(0.100000,-0.100000)"
fill="#000000" stroke="none">
<path d="M12 588 c-17 -17 -17 -499 0 -516 8 -8 53 -12 135 -12 112 0 125 -2
157 -24 89 -60 258 -36 287 41 18 47 -9 122 -64 180 -35 37 -42 76 -21 108 14
22 13 25 -13 49 -18 17 -39 26 -60 26 -32 0 -33 1 -33 41 0 35 -6 48 -39 80
l-39 39 -149 0 c-103 0 -153 -4 -161 -12z m298 -31 c0 -29 18 -47 47 -47 20 0
23 -5 23 -43 0 -31 -6 -47 -21 -60 -19 -17 -19 -20 -5 -41 21 -33 14 -72 -21
-109 -41 -43 -65 -92 -67 -139 l-1 -38 -122 0 -123 0 0 250 0 250 145 0 c145
0 145 0 145 -23z m40 -12 c10 -12 10 -15 -4 -15 -9 0 -16 7 -16 15 0 8 2 15 4
15 2 0 9 -7 16 -15z m120 -140 c0 -8 7 -15 15 -15 19 0 19 -9 -2 -32 -20 -23
-80 -24 -105 -1 -22 20 -23 33 -3 33 8 0 15 7 15 15 0 11 11 15 40 15 29 0 40
-4 40 -15z m10 -95 c0 -5 -22 -10 -50 -10 -27 0 -50 5 -50 10 0 6 23 10 50 10
28 0 50 -4 50 -10z m28 -55 c57 -48 87 -139 61 -187 -35 -64 -243 -64 -278 0
-26 49 2 138 58 185 45 37 116 38 159 2z"/>
<path d="M107 443 c6 -39 10 -50 17 -42 2 2 6 21 9 42 5 32 3 37 -13 37 -16 0
-18 -5 -13 -37z"/>
<path d="M182 468 c-14 -14 -16 -68 -3 -68 5 0 12 6 15 13 5 10 7 10 12 0 10
-23 24 -14 24 15 0 26 -15 52 -30 52 -3 0 -11 -5 -18 -12z m28 -18 c0 -5 -4
-10 -10 -10 -5 0 -10 5 -10 10 0 6 5 10 10 10 6 0 10 -4 10 -10z"/>
<path d="M263 449 c8 -13 7 -22 -4 -35 -13 -16 -12 -17 5 -11 12 5 22 3 27 -5
4 -7 11 -9 15 -5 4 3 1 14 -6 23 -10 12 -11 20 -3 33 10 15 7 18 -17 18 -24 0
-27 -3 -17 -18z"/>
<path d="M60 340 c0 -5 5 -10 10 -10 6 0 10 5 10 10 0 6 -4 10 -10 10 -5 0
-10 -4 -10 -10z"/>
<path d="M120 340 c0 -6 40 -10 100 -10 60 0 100 4 100 10 0 6 -40 10 -100 10
-60 0 -100 -4 -100 -10z"/>
<path d="M60 280 c0 -5 5 -10 10 -10 6 0 10 5 10 10 0 6 -4 10 -10 10 -5 0
-10 -4 -10 -10z"/>
<path d="M120 280 c0 -6 33 -10 80 -10 47 0 80 4 80 10 0 6 -33 10 -80 10 -47
0 -80 -4 -80 -10z"/>
<path d="M60 220 c0 -5 5 -10 10 -10 6 0 10 5 10 10 0 6 -4 10 -10 10 -5 0
-10 -4 -10 -10z"/>
<path d="M120 220 c0 -6 28 -10 65 -10 37 0 65 4 65 10 0 6 -28 10 -65 10 -37
0 -65 -4 -65 -10z"/>
<path d="M60 160 c0 -5 5 -10 10 -10 6 0 10 5 10 10 0 6 -4 10 -10 10 -5 0
-10 -4 -10 -10z"/>
<path d="M120 160 c0 -5 23 -10 50 -10 28 0 50 5 50 10 0 6 -22 10 -50 10 -27
0 -50 -4 -50 -10z"/>
<path d="M400 220 c-11 -11 -20 -24 -20 -30 0 -5 9 -19 20 -30 12 -12 20 -33
20 -52 -1 -31 -1 -32 -15 -14 -8 11 -17 17 -21 14 -7 -8 32 -48 46 -48 13 0
50 37 50 50 0 6 -9 19 -20 30 -12 12 -20 33 -20 53 1 30 1 31 15 13 8 -11 17
-17 21 -14 7 8 -32 48 -46 48 -5 0 -19 -9 -30 -20z m17 -47 c-4 -17 -4 -17
-12 0 -4 9 -4 25 0 35 8 16 8 16 12 0 3 -10 3 -26 0 -35z m43 -63 c0 -10 -4
-22 -10 -25 -6 -4 -10 7 -10 25 0 18 4 29 10 25 6 -3 10 -15 10 -25z"/>
</g>
</svg>
